<?xml version="1.0" standalone="no"?><!DOCTYPE svg PUBLIC "-//W3C//DTD SVG 1.1//EN" "http://www.w3.org/Graphics/SVG/1.1/DTD/svg11.dtd"><svg t="1747481849811" class="icon" viewBox="0 0 1024 1024" version="1.1" xmlns="http://www.w3.org/2000/svg" p-id="10688" xmlns:xlink="http://www.w3.org/1999/xlink" width="200" height="200"><path d="M67.797333 938.432S158.464 150.72 842.282667 86.08c0 0 144.896-14.613333 93.034666 69.056 0 0-210.922667 330.325333-15.317333 783.296H67.797333z" fill="#0858CB" p-id="10689"></path><path d="M72.32 937.770667a3.626667 3.626667 0 0 1-3.349333-5.077334c0.832-1.962667 87.296-195.861333 387.328-127.061333 2.517333 0.576 251.754667 55.765333 379.626666-131.370667a3.669333 3.669333 0 0 1 5.077334-0.96c1.664 1.130667 2.090667 3.413333 0.96 5.077334-130.709333 191.296-384.746667 134.954667-387.306667 134.357333C160.853333 745.365333 76.501333 933.653333 75.669333 935.552a3.648 3.648 0 0 1-3.349333 2.218667z" fill="#FFFFFF" p-id="10690"></path><path d="M72.32 937.770667a3.626667 3.626667 0 0 1-3.072-5.610667c1.088-1.685333 111.552-168.512 386.88-104.597333 2.709333 0.725333 261.76 68.288 385.216-113.941334a3.690667 3.690667 0 0 1 5.077333-0.981333c1.664 1.130667 2.112 3.413333 0.981334 5.077333-126.4 186.602667-390.378667 117.653333-393.045334 116.928-269.994667-62.698667-377.92 99.797333-378.965333 101.44a3.669333 3.669333 0 0 1-3.072 1.685334z" fill="#FFFFFF" p-id="10691"></path><path d="M72.32 937.770667a3.562667 3.562667 0 0 1-2.432-0.938667 3.648 3.648 0 0 1-0.298667-5.162667c1.386667-1.557333 141.418667-153.898667 419.669334-76.309333 2.261333 0.682667 219.413333 64.618667 362.666666-97.045333a3.648 3.648 0 0 1 5.461334 4.842666c-146.410667 165.226667-367.957333 99.882667-370.176 99.2C213.610667 786.133333 76.394667 935.04 75.029333 936.554667a3.562667 3.562667 0 0 1-2.709333 1.216z" fill="#FFFFFF" p-id="10692"></path><path d="M79.616 930.474667a3.648 3.648 0 0 1-2.176-6.592c1.664-1.216 167.829333-121.685333 444.245333-36.458667 2.090667 0.746667 197.098667 67.136 340.245334-94.4a3.648 3.648 0 0 1 5.461333 4.842667c-146.474667 165.312-346.005333 97.194667-348.010667 96.490666C246.613333 810.24 83.413333 928.533333 81.792 929.749333a3.562667 3.562667 0 0 1-2.176 0.725334z" fill="#FFFFFF" p-id="10693"></path><path d="M72.32 937.770667a3.669333 3.669333 0 0 1-3.136-1.770667 3.669333 3.669333 0 0 1 1.258667-5.013333c1.728-1.045333 175.850667-102.997333 445.141333-19.072 2.282667 0.832 212.245333 75.072 355.392-86.464a3.648 3.648 0 0 1 5.461333 4.842666c-146.496 165.333333-361.045333 89.322667-363.2 88.554667-266.026667-82.88-437.333333 17.386667-439.018666 18.410667a3.904 3.904 0 0 1-1.898667 0.512z" fill="#FFFFFF" p-id="10694"></path><path d="M72.32 937.770667a3.669333 3.669333 0 0 1-1.365333-7.061334c1.6-0.64 161.621333-62.933333 414.976-2.261333a3.669333 3.669333 0 0 1 2.709333 4.416 3.648 3.648 0 0 1-4.394667 2.709333c-250.944-60.096-408.981333 1.301333-410.56 1.941334a3.946667 3.946667 0 0 1-1.365333 0.256z" fill="#FFFFFF" p-id="10695"></path><path d="M71.573333 937.728a3.648 3.648 0 0 1-0.64-7.146667c1.216-0.341333 110.250667-24.064 255.722667-2.602666 7.018667 2.496 3.349333 9.770667-2.986667 6.933333-142.570667-20.736-249.536 2.346667-250.730666 2.688-0.448 0.128-0.917333 0.170667-1.365334 0.128zM771.349333 937.770667a3.669333 3.669333 0 0 1-0.384-7.296c0.64-0.064 64.170667-7.594667 111.488-55.808a3.669333 3.669333 0 0 1 5.162667-0.042667 3.669333 3.669333 0 0 1 0.042667 5.162667c-49.194667 50.133333-113.216 57.664-115.904 57.941333-0.128 0.042667-0.256 0.042667-0.405334 0.042667z" fill="#FFFFFF" p-id="10696"></path><path d="M72.32 937.770667a3.669333 3.669333 0 0 1-1.365333-7.061334c1.6-0.64 161.621333-62.933333 414.976-2.261333a3.669333 3.669333 0 0 1 2.709333 4.416 3.648 3.648 0 0 1-4.394667 2.709333c-250.944-60.096-408.981333 1.301333-410.56 1.941334a3.946667 3.946667 0 0 1-1.365333 0.256z" fill="#FFFFFF" p-id="10697"></path></svg>